<?xml version="1.0" encoding="UTF-8"?>
<!DOCTYPE svg PUBLIC "-//W3C//DTD SVG 1.1//EN" "http://www.w3.org/Graphics/SVG/1.1/DTD/svg11.dtd">
<svg xmlns="http://www.w3.org/2000/svg" version="1.1" width="192px" height="192px" style="shape-rendering:geometricPrecision; text-rendering:geometricPrecision; image-rendering:optimizeQuality; fill-rule:evenodd; clip-rule:evenodd" xmlns:xlink="http://www.w3.org/1999/xlink">
<g><path style="opacity:1" fill="#fafafa" d="M -0.5,-0.5 C 63.5,-0.5 127.5,-0.5 191.5,-0.5C 191.5,63.5 191.5,127.5 191.5,191.5C 127.5,191.5 63.5,191.5 -0.5,191.5C -0.5,127.5 -0.5,63.5 -0.5,-0.5 Z"/></g>
<g><path style="opacity:1" fill="#d9d9d9" d="M 152.5,8.5 C 112.476,8.18987 72.4761,8.5232 32.5,9.5C 33.2625,8.73209 34.2625,8.23209 35.5,8C 74.6688,7.16881 113.669,7.33547 152.5,8.5 Z"/></g>
<g><path style="opacity:1" fill="#030202" d="M 152.5,8.5 C 165.183,10.3212 174.016,17.3212 179,29.5C 179.667,72.8333 179.667,116.167 179,159.5C 175.576,170.755 168.409,178.089 157.5,181.5C 117.524,182.477 77.5239,182.81 37.5,182.5C 24.4736,180.148 16.1402,172.481 12.5,159.5C 12.3333,116.832 12.5,74.1654 13,31.5C 14.128,29.6547 14.628,27.6547 14.5,25.5C 18.3522,17.6423 24.3522,12.3089 32.5,9.5C 72.4761,8.5232 112.476,8.18987 152.5,8.5 Z"/></g>
<g><path style="opacity:1" fill="#b5ac3b" d="M 54.5,58.5 C 52.8333,57.1667 51.1667,57.1667 49.5,58.5C 49.4176,56.7483 50.2509,55.7483 52,55.5C 53.7491,55.7483 54.5824,56.7483 54.5,58.5 Z"/></g>
<g><path style="opacity:1" fill="#b0a736" d="M 148.5,59.5 C 146.002,56.7463 144.002,57.0796 142.5,60.5C 142.01,58.0516 142.843,56.385 145,55.5C 147.074,56.0717 148.24,57.405 148.5,59.5 Z"/></g>
<g><path style="opacity:1" fill="#c5b423" d="M 54.5,58.5 C 56.2038,61.2558 57.5371,64.2558 58.5,67.5C 57.5041,67.5858 56.6708,67.2524 56,66.5C 55.1785,63.8832 54.6785,61.2165 54.5,58.5 Z"/></g>
<g><path style="opacity:1" fill="#f4db0d" d="M 54.5,58.5 C 54.6785,61.2165 55.1785,63.8832 56,66.5C 56.6708,67.2524 57.5041,67.5858 58.5,67.5C 59.3627,69.4214 60.0293,71.4214 60.5,73.5C 60.3433,74.8734 60.51,76.2068 61,77.5C 61.9022,79.4308 63.0688,81.0975 64.5,82.5C 64.5,83.8333 64.5,85.1667 64.5,86.5C 64.5713,89.3113 65.238,91.978 66.5,94.5C 66.4435,95.737 65.9435,96.737 65,97.5C 64.8585,93.5508 63.3585,90.2174 60.5,87.5C 58.9579,88.7468 57.4579,88.7468 56,87.5C 55.2055,83.4496 54.2055,79.4496 53,75.5C 52.3292,74.7476 51.4959,74.4142 50.5,74.5C 49.6554,73.3285 48.9887,71.9952 48.5,70.5C 47.9816,69.4226 47.6483,68.2559 47.5,67C 48.6166,64.2687 49.2833,61.4353 49.5,58.5C 51.1667,57.1667 52.8333,57.1667 54.5,58.5 Z"/></g>
<g><path style="opacity:1" fill="#c4b525" d="M 148.5,59.5 C 152.262,66.4352 155.262,73.7685 157.5,81.5C 152.531,75.0903 149.531,67.7569 148.5,59.5 Z"/></g>
<g><path style="opacity:1" fill="#c9ba38" d="M 49.5,58.5 C 49.2833,61.4353 48.6166,64.2687 47.5,67C 47.6483,68.2559 47.9816,69.4226 48.5,70.5C 45.7675,74.3033 43.7675,78.6366 42.5,83.5C 42.1667,83.5 41.8333,83.5 41.5,83.5C 41.1583,82.6618 40.4916,82.3284 39.5,82.5C 42.833,74.5031 46.1664,66.5031 49.5,58.5 Z"/></g>
<g><path style="opacity:1" fill="#27220b" d="M 48.5,70.5 C 48.9887,71.9952 49.6554,73.3285 50.5,74.5C 51.1667,76.8333 51.8333,79.1667 52.5,81.5C 53.9313,82.7804 54.5979,84.4471 54.5,86.5C 50.5,86.5 46.5,86.5 42.5,86.5C 42.5,85.5 42.5,84.5 42.5,83.5C 43.7675,78.6366 45.7675,74.3033 48.5,70.5 Z"/></g>
<g><path style="opacity:1" fill="#181305" d="M 142.5,71.5 C 144.436,76.3814 146.103,81.3814 147.5,86.5C 143.5,86.5 139.5,86.5 135.5,86.5C 136.757,82.5587 137.924,78.5587 139,74.5C 139.759,72.9371 140.926,71.9371 142.5,71.5 Z"/></g>
<g><path style="opacity:1" fill="#030201" d="M 52.5,81.5 C 52.5,82.8333 52.5,84.1667 52.5,85.5C 49.8333,85.5 47.1667,85.5 44.5,85.5C 44.3418,82.4545 45.0085,79.6212 46.5,77C 47.1667,76.3333 47.8333,76.3333 48.5,77C 49.7332,78.6667 51.0665,80.1667 52.5,81.5 Z"/></g>
<g><path style="opacity:1" fill="#b4a52a" d="M 60.5,73.5 C 62.5837,76.0534 63.917,79.0534 64.5,82.5C 63.0688,81.0975 61.9022,79.4308 61,77.5C 60.51,76.2068 60.3433,74.8734 60.5,73.5 Z"/></g>
<g><path style="opacity:1" fill="#b4a637" d="M 139.5,66.5 C 139.5,67.8333 139.5,69.1667 139.5,70.5C 140.791,70.2627 141.791,70.596 142.5,71.5C 140.926,71.9371 139.759,72.9371 139,74.5C 137.924,78.5587 136.757,82.5587 135.5,86.5C 139.5,86.5 143.5,86.5 147.5,86.5C 143.366,87.4849 139.032,87.8182 134.5,87.5C 134.657,86.1266 134.49,84.7932 134,83.5C 133.617,84.056 133.117,84.3893 132.5,84.5C 134.84,78.4443 137.174,72.4443 139.5,66.5 Z"/></g>
<g><path style="opacity:1" fill="#afa436" d="M 96.5,87.5 C 94.4221,86.0939 92.2555,84.7605 90,83.5C 89.9977,80.9488 89.1644,78.9488 87.5,77.5C 91.1385,73.6117 94.9719,73.6117 99,77.5C 99.6667,79.5 99.6667,81.5 99,83.5C 97.5187,84.4709 96.6854,85.8042 96.5,87.5 Z"/></g>
<g><path style="opacity:1" fill="#181104" d="M 90.5,77.5 C 96.5548,76.9421 97.8881,79.1088 94.5,84C 93.0039,84.5074 91.8373,84.0074 91,82.5C 90.5065,80.8659 90.3398,79.1992 90.5,77.5 Z"/></g>
<g><path style="opacity:1" fill="#a99e24" d="M 157.5,81.5 C 159.074,83.1016 159.741,85.1016 159.5,87.5C 157.926,85.8984 157.259,83.8984 157.5,81.5 Z"/></g>
<g><path style="opacity:1" fill="#8d841d" d="M 64.5,82.5 C 66.0652,84.5093 67.0652,86.8427 67.5,89.5C 66.2719,88.6935 65.2719,87.6935 64.5,86.5C 64.5,85.1667 64.5,83.8333 64.5,82.5 Z"/></g>
<g><path style="opacity:1" fill="#90863b" d="M 111.5,88.5 C 109.167,87.1667 106.833,87.1667 104.5,88.5C 103.957,88.44 103.624,88.1067 103.5,87.5C 106.833,86.1667 110.167,86.1667 113.5,87.5C 113.043,88.2975 112.376,88.6309 111.5,88.5 Z"/></g>
<g><path style="opacity:1" fill="#f3db11" d="M 148.5,59.5 C 149.531,67.7569 152.531,75.0903 157.5,81.5C 157.259,83.8984 157.926,85.8984 159.5,87.5C 160.674,88.5137 161.34,89.847 161.5,91.5C 161.166,94.491 162.166,96.8243 164.5,98.5C 164.5,99.1667 164.5,99.8333 164.5,100.5C 164.022,103.278 165.022,105.278 167.5,106.5C 163.555,107.491 159.555,107.824 155.5,107.5C 156.069,103.671 155.402,100.337 153.5,97.5C 152.313,95.9275 151.313,94.2608 150.5,92.5C 150.672,91.5084 150.338,90.8417 149.5,90.5C 144.025,89.5111 138.358,89.1778 132.5,89.5C 132.5,87.8333 132.5,86.1667 132.5,84.5C 133.117,84.3893 133.617,84.056 134,83.5C 134.49,84.7932 134.657,86.1266 134.5,87.5C 139.032,87.8182 143.366,87.4849 147.5,86.5C 146.103,81.3814 144.436,76.3814 142.5,71.5C 141.791,70.596 140.791,70.2627 139.5,70.5C 139.5,69.1667 139.5,67.8333 139.5,66.5C 139.912,64.1133 140.912,62.1133 142.5,60.5C 144.002,57.0796 146.002,56.7463 148.5,59.5 Z"/></g>
<g><path style="opacity:1" fill="#e7d220" d="M 50.5,74.5 C 51.4959,74.4142 52.3292,74.7476 53,75.5C 54.2055,79.4496 55.2055,83.4496 56,87.5C 57.4579,88.7468 58.9579,88.7468 60.5,87.5C 63.3585,90.2174 64.8585,93.5508 65,97.5C 65.9435,96.737 66.4435,95.737 66.5,94.5C 65.238,91.978 64.5713,89.3113 64.5,86.5C 65.2719,87.6935 66.2719,88.6935 67.5,89.5C 69.2919,92.6336 70.6252,95.9669 71.5,99.5C 72.4486,101.777 73.7819,103.777 75.5,105.5C 76.287,107.104 77.6203,107.771 79.5,107.5C 71.5,108.833 63.5,108.833 55.5,107.5C 57.1439,107.714 58.6439,107.38 60,106.5C 60.7891,104.288 60.6225,102.288 59.5,100.5C 59.5905,97.8478 58.9238,95.5145 57.5,93.5C 57.5858,92.5041 57.2524,91.6708 56.5,91C 50.8431,90.5006 45.1764,90.3339 39.5,90.5C 38.8968,88.3743 38.8968,86.0409 39.5,83.5C 39.5,83.1667 39.5,82.8333 39.5,82.5C 40.4916,82.3284 41.1583,82.6618 41.5,83.5C 41.5,84.8333 41.5,86.1667 41.5,87.5C 46.0323,87.8182 50.3656,87.4849 54.5,86.5C 54.5979,84.4471 53.9313,82.7804 52.5,81.5C 51.8333,79.1667 51.1667,76.8333 50.5,74.5 Z"/></g>
<g><path style="opacity:1" fill="#9c9137" d="M 41.5,83.5 C 41.8333,83.5 42.1667,83.5 42.5,83.5C 42.5,84.5 42.5,85.5 42.5,86.5C 46.5,86.5 50.5,86.5 54.5,86.5C 50.3656,87.4849 46.0323,87.8182 41.5,87.5C 41.5,86.1667 41.5,84.8333 41.5,83.5 Z"/></g>
<g><path style="opacity:1" fill="#e0cd35" d="M 104.5,88.5 C 106.833,87.1667 109.167,87.1667 111.5,88.5C 109.774,90.2279 108.441,92.2279 107.5,94.5C 106.833,92.8333 106.167,91.1667 105.5,89.5C 105.5,88.8333 105.167,88.5 104.5,88.5 Z"/></g>
<g><path style="opacity:1" fill="#c1b537" d="M 39.5,83.5 C 38.8968,86.0409 38.8968,88.3743 39.5,90.5C 36.9416,99.1148 33.9416,107.448 30.5,115.5C 30.6567,114.127 30.49,112.793 30,111.5C 29.7996,113.32 28.9663,114.653 27.5,115.5C 30.5493,104.337 34.5493,93.6702 39.5,83.5 Z"/></g>
<g><path style="opacity:1" fill="#b7ab3d" d="M 88.5,88.5 C 89.5,89.5 90.5,90.5 91.5,91.5C 89.9382,91.7329 88.6049,92.3995 87.5,93.5C 86.7978,92.8843 85.7978,92.8843 84.5,93.5C 86.3671,92.2402 87.7005,90.5735 88.5,88.5 Z"/></g>
<g><path style="opacity:1" fill="#090604" d="M 39.5,90.5 C 45.1764,90.3339 50.8431,90.5006 56.5,91C 57.2524,91.6708 57.5858,92.5041 57.5,93.5C 57.4095,96.1522 58.0762,98.4855 59.5,100.5C 60.3201,104.279 58.9867,106.612 55.5,107.5C 54.1667,108.167 54.1667,108.833 55.5,109.5C 55.2089,110.649 54.3756,111.316 53,111.5C 47.633,110.377 42.4663,110.71 37.5,112.5C 37.5,116.167 37.5,119.833 37.5,123.5C 36.5,123.5 35.5,123.5 34.5,123.5C 32.9826,123.489 31.8159,122.823 31,121.5C 30.5045,119.527 30.3379,117.527 30.5,115.5C 33.9416,107.448 36.9416,99.1148 39.5,90.5 Z"/></g>
<g><path style="opacity:1" fill="#e8d41f" d="M 87.5,77.5 C 89.1644,78.9488 89.9977,80.9488 90,83.5C 92.2555,84.7605 94.4221,86.0939 96.5,87.5C 99.1776,90.1842 101.511,93.1842 103.5,96.5C 103.989,97.9952 104.655,99.3285 105.5,100.5C 106.833,102.5 108.5,104.167 110.5,105.5C 108.721,107.344 106.388,108.01 103.5,107.5C 102.833,106.5 102.167,105.5 101.5,104.5C 101.068,103.29 100.401,102.29 99.5,101.5C 97.2133,97.8781 94.5466,94.5448 91.5,91.5C 90.5,90.5 89.5,89.5 88.5,88.5C 85.1678,84.9128 84.8345,81.2461 87.5,77.5 Z"/></g>
<g><path style="opacity:1" fill="#151005" d="M 91.5,91.5 C 94.5466,94.5448 97.2133,97.8781 99.5,101.5C 97.5841,103.977 94.9175,104.977 91.5,104.5C 87.8458,101.859 86.5124,98.1923 87.5,93.5C 88.6049,92.3995 89.9382,91.7329 91.5,91.5 Z"/></g>
<g><path style="opacity:1" fill="#9e9423" d="M 161.5,91.5 C 163.065,93.5093 164.065,95.8427 164.5,98.5C 162.166,96.8243 161.166,94.491 161.5,91.5 Z"/></g>
<g><path style="opacity:1" fill="#aca039" d="M 105.5,89.5 C 106.167,91.1667 106.833,92.8333 107.5,94.5C 106.37,96.3146 105.704,98.3146 105.5,100.5C 104.655,99.3285 103.989,97.9952 103.5,96.5C 105.163,94.5615 105.829,92.2282 105.5,89.5 Z"/></g>
<g><path style="opacity:1" fill="#504410" d="M 57.5,93.5 C 58.9238,95.5145 59.5905,97.8478 59.5,100.5C 58.0762,98.4855 57.4095,96.1522 57.5,93.5 Z"/></g>
<g><path style="opacity:1" fill="#b9ae2f" d="M 132.5,84.5 C 132.5,86.1667 132.5,87.8333 132.5,89.5C 138.358,89.1778 144.025,89.5111 149.5,90.5C 143.794,90.1712 138.128,90.5046 132.5,91.5C 131.089,95.7127 130.422,100.046 130.5,104.5C 129.034,103.653 128.2,102.32 128,100.5C 127.583,101.756 126.75,102.423 125.5,102.5C 127.858,96.4133 130.191,90.4133 132.5,84.5 Z"/></g>
<g><path style="opacity:1" fill="#161817" d="M 14.5,25.5 C 14.628,27.6547 14.128,29.6547 13,31.5C 12.5,74.1654 12.3333,116.832 12.5,159.5C 11.3353,116.669 11.1686,73.6686 12,30.5C 12.3736,28.5087 13.207,26.842 14.5,25.5 Z"/></g>
<g><path style="opacity:1" fill="#e6d124" d="M 87.5,93.5 C 86.5124,98.1923 87.8458,101.859 91.5,104.5C 94.403,106.245 94.0697,107.245 90.5,107.5C 88.1817,107.003 85.8484,106.67 83.5,106.5C 81.7319,103.838 81.0653,100.838 81.5,97.5C 81.7376,95.5956 82.7376,94.2623 84.5,93.5C 85.7978,92.8843 86.7978,92.8843 87.5,93.5 Z"/></g>
<g><path style="opacity:1" fill="#2c2409" d="M 150.5,92.5 C 151.313,94.2608 152.313,95.9275 153.5,97.5C 153.806,100.385 153.473,103.052 152.5,105.5C 151.725,101.186 151.059,96.8526 150.5,92.5 Z"/></g>
<g><path style="opacity:1" fill="#87845f" d="M 112.5,107.5 C 112.5,106.833 112.5,106.167 112.5,105.5C 113.077,104.227 113.743,104.227 114.5,105.5C 114.145,106.522 113.478,107.189 112.5,107.5 Z"/></g>
<g><path style="opacity:1" fill="#9d8a31" d="M 59.5,100.5 C 60.6225,102.288 60.7891,104.288 60,106.5C 58.6439,107.38 57.1439,107.714 55.5,107.5C 58.9867,106.612 60.3201,104.279 59.5,100.5 Z"/></g>
<g><path style="opacity:1" fill="#6f6628" d="M 75.5,105.5 C 77.153,105.66 78.4863,106.326 79.5,107.5C 77.6203,107.771 76.287,107.104 75.5,105.5 Z"/></g>
<g><path style="opacity:1" fill="#beb043" d="M 99.5,101.5 C 100.401,102.29 101.068,103.29 101.5,104.5C 98.91,105.128 96.5766,106.295 94.5,108C 91.5,108.667 88.5,108.667 85.5,108C 84.5842,107.722 83.9175,107.222 83.5,106.5C 85.8484,106.67 88.1817,107.003 90.5,107.5C 94.0697,107.245 94.403,106.245 91.5,104.5C 94.9175,104.977 97.5841,103.977 99.5,101.5 Z"/></g>
<g><path style="opacity:1" fill="#f2d919" d="M 130.5,104.5 C 130.414,105.496 130.748,106.329 131.5,107C 129.19,107.497 126.857,107.663 124.5,107.5C 124.629,105.784 124.962,104.117 125.5,102.5C 126.75,102.423 127.583,101.756 128,100.5C 128.2,102.32 129.034,103.653 130.5,104.5 Z"/></g>
<g><path style="opacity:1" fill="#aba339" d="M 110.5,105.5 C 111.167,105.5 111.833,105.5 112.5,105.5C 112.5,106.167 112.5,106.833 112.5,107.5C 109.396,108.775 106.396,108.775 103.5,107.5C 106.388,108.01 108.721,107.344 110.5,105.5 Z"/></g>
<g><path style="opacity:1" fill="#d8c62f" d="M 125.5,102.5 C 124.962,104.117 124.629,105.784 124.5,107.5C 126.857,107.663 129.19,107.497 131.5,107C 130.748,106.329 130.414,105.496 130.5,104.5C 131.5,105.167 132.5,105.833 133.5,106.5C 133.918,107.222 134.584,107.722 135.5,108C 130.167,108.667 124.833,108.667 119.5,108C 120.056,107.617 120.389,107.117 120.5,106.5C 122.142,105.197 123.809,103.864 125.5,102.5 Z"/></g>
<g><path style="opacity:1" fill="#dbca33" d="M 153.5,97.5 C 155.402,100.337 156.069,103.671 155.5,107.5C 159.555,107.824 163.555,107.491 167.5,106.5C 165.022,105.278 164.022,103.278 164.5,100.5C 166.543,103.543 169.21,105.876 172.5,107.5C 164.684,108.492 156.684,108.826 148.5,108.5C 149.833,107.5 151.167,106.5 152.5,105.5C 153.473,103.052 153.806,100.385 153.5,97.5 Z"/></g>
<g><path style="opacity:1" fill="#7b6f23" d="M 55.5,107.5 C 63.5,108.833 71.5,108.833 79.5,107.5C 80.0431,107.56 80.3764,107.893 80.5,108.5C 72.1932,109.498 63.8599,109.831 55.5,109.5C 54.1667,108.833 54.1667,108.167 55.5,107.5 Z"/></g>
<g><path style="opacity:1" fill="#7e7225" d="M 120.5,106.5 C 120.389,107.117 120.056,107.617 119.5,108C 124.833,108.667 130.167,108.667 135.5,108C 134.584,107.722 133.918,107.222 133.5,106.5C 134.5,106.5 135.5,106.5 136.5,106.5C 136.5,107.5 136.5,108.5 136.5,109.5C 130.5,109.5 124.5,109.5 118.5,109.5C 118.285,107.821 118.952,106.821 120.5,106.5 Z"/></g>
<g><path style="opacity:1" fill="#7a7023" d="M 172.5,107.5 C 173.043,107.56 173.376,107.893 173.5,108.5C 165.009,109.821 156.676,109.821 148.5,108.5C 156.684,108.826 164.684,108.492 172.5,107.5 Z"/></g>
<g><path style="opacity:1" fill="#1a1916" d="M 81.5,97.5 C 81.0653,100.838 81.7319,103.838 83.5,106.5C 83.9175,107.222 84.5842,107.722 85.5,108C 88.5,108.667 91.5,108.667 94.5,108C 96.5766,106.295 98.91,105.128 101.5,104.5C 102.167,105.5 102.833,106.5 103.5,107.5C 97.2061,107.887 96.8728,109.553 102.5,112.5C 99.8333,112.5 97.1667,112.5 94.5,112.5C 93.8333,112.5 93.1667,112.5 92.5,112.5C 90.5,112.5 88.5,112.5 86.5,112.5C 85.5151,116.634 85.1818,120.968 85.5,125.5C 85.1667,125.5 84.8333,125.5 84.5,125.5C 84.6716,124.508 84.3382,123.842 83.5,123.5C 82.5028,123.53 81.8361,123.03 81.5,122C 82.1667,121 82.8333,120 83.5,119C 82.2927,117.7 81.6261,116.2 81.5,114.5C 83.1788,114.715 84.1788,114.048 84.5,112.5C 82.3926,111.532 80.0593,111.198 77.5,111.5C 77.5,116.5 77.5,121.5 77.5,126.5C 75.5853,126.784 73.9187,126.451 72.5,125.5C 73.5,125.5 74.5,125.5 75.5,125.5C 76.4575,121.003 76.4575,116.67 75.5,112.5C 69.8333,111.167 64.1667,111.167 58.5,112.5C 57.5139,116.97 57.1805,121.637 57.5,126.5C 57.1667,126.5 56.8333,126.5 56.5,126.5C 56.8195,121.637 56.4861,116.97 55.5,112.5C 54.5,112.5 53.5,112.5 52.5,112.5C 52.1165,116.942 51.1165,117.276 49.5,113.5C 48.675,112.614 47.675,112.281 46.5,112.5C 45.5151,116.634 45.1818,120.968 45.5,125.5C 45.1667,125.5 44.8333,125.5 44.5,125.5C 44.6716,124.508 44.3382,123.842 43.5,123.5C 42.5,123.5 41.5,123.5 40.5,123.5C 40.5,122.5 40.5,121.5 40.5,120.5C 42.1788,120.715 43.1788,120.048 43.5,118.5C 42.9094,117.849 42.2427,117.182 41.5,116.5C 42.6016,115.824 43.6016,115.158 44.5,114.5C 42.7211,112.656 40.3878,111.99 37.5,112.5C 42.4663,110.71 47.633,110.377 53,111.5C 54.3756,111.316 55.2089,110.649 55.5,109.5C 63.8599,109.831 72.1932,109.498 80.5,108.5C 80.3764,107.893 80.0431,107.56 79.5,107.5C 78.4863,106.326 77.153,105.66 75.5,105.5C 73.7819,103.777 72.4486,101.777 71.5,99.5C 74.1122,100.277 75.9455,101.944 77,104.5C 77.7096,103.027 78.8762,102.36 80.5,102.5C 80.2155,100.585 80.5489,98.9187 81.5,97.5 Z"/></g>
<g><path style="opacity:1" fill="#393936" d="M 149.5,112.5 C 154.5,111.167 159.5,111.167 164.5,112.5C 162.167,112.5 159.833,112.5 157.5,112.5C 157.5,116.5 157.5,120.5 157.5,124.5C 156.833,121.5 156.167,118.5 155.5,115.5C 155.5,115.167 155.5,114.833 155.5,114.5C 154.082,112.692 152.082,112.025 149.5,112.5 Z"/></g>
<g><path style="opacity:1" fill="#40423f" d="M 58.5,112.5 C 64.1667,111.167 69.8333,111.167 75.5,112.5C 73.1667,112.5 70.8333,112.5 68.5,112.5C 67.5206,115.625 67.1872,118.958 67.5,122.5C 66.8333,122.5 66.1667,122.5 65.5,122.5C 65.5,119.167 65.5,115.833 65.5,112.5C 63.1667,112.5 60.8333,112.5 58.5,112.5 Z"/></g>
<g><path style="opacity:1" fill="#6e6e6c" d="M 131.5,112.5 C 131.5,116.833 131.5,121.167 131.5,125.5C 133.5,125.5 135.5,125.5 137.5,125.5C 135.393,126.468 133.059,126.802 130.5,126.5C 130.181,121.637 130.514,116.97 131.5,112.5 Z"/></g>
<g><path style="opacity:1" fill="#61615d" d="M 44.5,114.5 C 43.6016,115.158 42.6016,115.824 41.5,116.5C 42.2427,117.182 42.9094,117.849 43.5,118.5C 42.5,118.5 41.5,118.5 40.5,118.5C 40.5,117.167 40.5,115.833 40.5,114.5C 41.8333,114.5 43.1667,114.5 44.5,114.5 Z"/></g>
<g><path style="opacity:1" fill="#eeefea" d="M 46.5,112.5 C 47.675,112.281 48.675,112.614 49.5,113.5C 51.1165,117.276 52.1165,116.942 52.5,112.5C 53.5,112.5 54.5,112.5 55.5,112.5C 56.0969,117.294 55.4302,121.627 53.5,125.5C 53.7884,119.558 52.9551,119.225 51,124.5C 50.6012,124.272 50.4346,123.938 50.5,123.5C 50.2172,122.711 49.7172,122.044 49,121.5C 48.7811,122.938 48.2811,124.271 47.5,125.5C 46.5078,121.217 46.1744,116.884 46.5,112.5 Z"/></g>
<g><path style="opacity:1" fill="#dedfdb" d="M 86.5,112.5 C 88.5,112.5 90.5,112.5 92.5,112.5C 92.5,113.167 92.5,113.833 92.5,114.5C 91.5,114.5 90.5,114.5 89.5,114.5C 89.5,115.5 89.5,116.5 89.5,117.5C 90.5,117.5 91.5,117.5 92.5,117.5C 92.5,118.5 92.5,119.5 92.5,120.5C 91.5,120.5 90.5,120.5 89.5,120.5C 89.2852,122.179 89.9519,123.179 91.5,123.5C 90.4479,125.256 88.7812,125.923 86.5,125.5C 86.5,121.167 86.5,116.833 86.5,112.5 Z"/></g>
<g><path style="opacity:1" fill="#4e4d4b" d="M 92.5,112.5 C 93.1667,112.5 93.8333,112.5 94.5,112.5C 94.5,117.167 94.5,121.833 94.5,126.5C 93.8333,122.5 93.1667,118.5 92.5,114.5C 92.5,113.833 92.5,113.167 92.5,112.5 Z"/></g>
<g><path style="opacity:1" fill="#8a8a88" d="M 114.5,112.5 C 115.209,111.596 116.209,111.263 117.5,111.5C 117.5,116.5 117.5,121.5 117.5,126.5C 116.167,126.5 114.833,126.5 113.5,126.5C 113.181,121.637 113.514,116.97 114.5,112.5 Z"/></g>
<g><path style="opacity:1" fill="#8f8f8e" d="M 122.5,112.5 C 121.5,112.5 120.5,112.5 119.5,112.5C 119.174,116.884 119.508,121.217 120.5,125.5C 121.167,123.833 121.833,122.167 122.5,120.5C 123.386,121.325 123.719,122.325 123.5,123.5C 122.596,124.209 122.263,125.209 122.5,126.5C 121.167,126.5 119.833,126.5 118.5,126.5C 118.5,121.5 118.5,116.5 118.5,111.5C 120.099,111.232 121.432,111.566 122.5,112.5 Z"/></g>
<g><path style="opacity:1" fill="#f0f0ec" d="M 149.5,112.5 C 152.082,112.025 154.082,112.692 155.5,114.5C 153.888,117.744 152.888,121.411 152.5,125.5C 151.833,121.687 151.166,118.021 150.5,114.5C 149.662,114.158 149.328,113.492 149.5,112.5 Z"/></g>
<g><path style="opacity:1" fill="#868685" d="M 46.5,112.5 C 46.1744,116.884 46.5078,121.217 47.5,125.5C 48.2811,124.271 48.7811,122.938 49,121.5C 49.7172,122.044 50.2172,122.711 50.5,123.5C 49.596,124.209 49.2627,125.209 49.5,126.5C 47.901,126.768 46.5676,126.434 45.5,125.5C 45.1818,120.968 45.5151,116.634 46.5,112.5 Z"/></g>
<g><path style="opacity:1" fill="#dcdcdb" d="M 104.5,112.5 C 107.167,112.5 109.833,112.5 112.5,112.5C 112.666,116.846 112.499,121.179 112,125.5C 109.619,126.435 107.119,126.768 104.5,126.5C 104.5,121.833 104.5,117.167 104.5,112.5 Z"/></g>
<g><path style="opacity:1" fill="#e5e6e3" d="M 122.5,112.5 C 123.161,113.718 123.828,115.051 124.5,116.5C 125.429,115.311 125.762,113.978 125.5,112.5C 126.833,112.5 128.167,112.5 129.5,112.5C 129.5,117.167 129.5,121.833 129.5,126.5C 128.5,126.5 127.5,126.5 126.5,126.5C 126.66,124.801 126.494,123.134 126,121.5C 125.583,122.756 124.75,123.423 123.5,123.5C 123.719,122.325 123.386,121.325 122.5,120.5C 121.833,122.167 121.167,123.833 120.5,125.5C 119.508,121.217 119.174,116.884 119.5,112.5C 120.5,112.5 121.5,112.5 122.5,112.5 Z"/></g>
<g><path style="opacity:1" fill="#1e1e1c" d="M 137.5,114.5 C 138.833,117.5 138.833,120.5 137.5,123.5C 136.5,123.5 135.5,123.5 134.5,123.5C 134.48,121.857 135.147,120.524 136.5,119.5C 134.995,118.158 134.328,116.492 134.5,114.5C 135.5,114.5 136.5,114.5 137.5,114.5 Z"/></g>
<g><path style="opacity:1" fill="#e3e3df" d="M 37.5,112.5 C 40.3878,111.99 42.7211,112.656 44.5,114.5C 43.1667,114.5 41.8333,114.5 40.5,114.5C 40.5,115.833 40.5,117.167 40.5,118.5C 41.5,118.5 42.5,118.5 43.5,118.5C 43.1788,120.048 42.1788,120.715 40.5,120.5C 40.5,121.5 40.5,122.5 40.5,123.5C 41.5,123.5 42.5,123.5 43.5,123.5C 42.0821,125.308 40.0821,125.975 37.5,125.5C 37.5,124.833 37.5,124.167 37.5,123.5C 37.5,119.833 37.5,116.167 37.5,112.5 Z"/></g>
<g><path style="opacity:1" fill="#dddedd" d="M 84.5,112.5 C 84.1788,114.048 83.1788,114.715 81.5,114.5C 81.6261,116.2 82.2927,117.7 83.5,119C 82.8333,120 82.1667,121 81.5,122C 81.8361,123.03 82.5028,123.53 83.5,123.5C 82.4479,125.256 80.7812,125.923 78.5,125.5C 78.5,121.167 78.5,116.833 78.5,112.5C 80.5,112.5 82.5,112.5 84.5,112.5 Z"/></g>
<g><path style="opacity:1" fill="#f1f0ef" d="M 58.5,112.5 C 60.8333,112.5 63.1667,112.5 65.5,112.5C 65.5,115.833 65.5,119.167 65.5,122.5C 64.1667,122.5 62.8333,122.5 61.5,122.5C 60.8423,123.398 60.1757,124.398 59.5,125.5C 58.5078,121.217 58.1744,116.884 58.5,112.5 Z"/></g>
<g><path style="opacity:1" fill="#6a696a" d="M 60.5,114.5 C 61.5,114.5 62.5,114.5 63.5,114.5C 63.5,116.5 63.5,118.5 63.5,120.5C 62.5,120.5 61.5,120.5 60.5,120.5C 60.5,118.5 60.5,116.5 60.5,114.5 Z"/></g>
<g><path style="opacity:1" fill="#464646" d="M 102.5,112.5 C 103.167,112.5 103.833,112.5 104.5,112.5C 104.5,117.167 104.5,121.833 104.5,126.5C 103.833,126.5 103.167,126.5 102.5,126.5C 102.5,121.833 102.5,117.167 102.5,112.5 Z"/></g>
<g><path style="opacity:1" fill="#474749" d="M 107.5,114.5 C 108.765,115.514 109.431,117.014 109.5,119C 109.167,120.5 108.833,122 108.5,123.5C 107.516,120.572 107.183,117.572 107.5,114.5 Z"/></g>
<g><path style="opacity:1" fill="#787777" d="M 174.5,114.5 C 173.602,115.158 172.602,115.824 171.5,116.5C 172.602,117.176 173.602,117.842 174.5,118.5C 173.167,118.5 171.833,118.5 170.5,118.5C 170.5,117.167 170.5,115.833 170.5,114.5C 171.833,114.5 173.167,114.5 174.5,114.5 Z"/></g>
<g><path style="opacity:1" fill="#a5a6a1" d="M 55.5,112.5 C 56.4861,116.97 56.8195,121.637 56.5,126.5C 55.209,126.737 54.209,126.404 53.5,125.5C 55.4302,121.627 56.0969,117.294 55.5,112.5 Z"/></g>
<g><path style="opacity:1" fill="#949491" d="M 68.5,112.5 C 68.1744,116.884 68.5078,121.217 69.5,125.5C 70.1667,124.5 70.8333,123.5 71.5,122.5C 72.2975,122.957 72.6309,123.624 72.5,124.5C 71.2209,125.968 69.5542,126.635 67.5,126.5C 67.5,125.167 67.5,123.833 67.5,122.5C 67.1872,118.958 67.5206,115.625 68.5,112.5 Z"/></g>
<g><path style="opacity:1" fill="#e2e2df" d="M 131.5,112.5 C 133.5,112.5 135.5,112.5 137.5,112.5C 137.5,113.167 137.5,113.833 137.5,114.5C 136.5,114.5 135.5,114.5 134.5,114.5C 134.328,116.492 134.995,118.158 136.5,119.5C 135.147,120.524 134.48,121.857 134.5,123.5C 135.5,123.5 136.5,123.5 137.5,123.5C 137.5,124.167 137.5,124.833 137.5,125.5C 135.5,125.5 133.5,125.5 131.5,125.5C 131.5,121.167 131.5,116.833 131.5,112.5 Z"/></g>
<g><path style="opacity:1" fill="#dbdbd9" d="M 164.5,112.5 C 164.833,112.5 165.167,112.5 165.5,112.5C 165.5,116.833 165.5,121.167 165.5,125.5C 164.551,126.152 163.385,126.486 162,126.5C 159.992,126.693 158.492,126.026 157.5,124.5C 157.5,120.5 157.5,116.5 157.5,112.5C 159.833,112.5 162.167,112.5 164.5,112.5 Z"/></g>
<g><path style="opacity:1" fill="#e2e1e1" d="M 167.5,112.5 C 170.388,111.99 172.721,112.656 174.5,114.5C 173.167,114.5 171.833,114.5 170.5,114.5C 170.5,115.833 170.5,117.167 170.5,118.5C 171.833,118.5 173.167,118.5 174.5,118.5C 174.5,121.167 174.5,123.833 174.5,126.5C 172.473,126.662 170.473,126.495 168.5,126C 168.043,125.586 167.709,125.086 167.5,124.5C 168.689,123.571 170.022,123.238 171.5,123.5C 171.5,122.5 171.5,121.5 171.5,120.5C 170.167,120.5 168.833,120.5 167.5,120.5C 167.5,117.833 167.5,115.167 167.5,112.5 Z"/></g>
<g><path style="opacity:1" fill="#9f9f9c" d="M 84.5,112.5 C 82.5,112.5 80.5,112.5 78.5,112.5C 78.5,116.833 78.5,121.167 78.5,125.5C 80.7812,125.923 82.4479,125.256 83.5,123.5C 84.3382,123.842 84.6716,124.508 84.5,125.5C 82.3926,126.468 80.0593,126.802 77.5,126.5C 77.5,121.5 77.5,116.5 77.5,111.5C 80.0593,111.198 82.3926,111.532 84.5,112.5 Z"/></g>
<g><path style="opacity:1" fill="#dfdfdc" d="M 94.5,112.5 C 97.1667,112.5 99.8333,112.5 102.5,112.5C 102.5,117.167 102.5,121.833 102.5,126.5C 99.6118,126.78 98.1118,125.447 98,122.5C 97.51,123.793 97.3433,125.127 97.5,126.5C 96.5,126.5 95.5,126.5 94.5,126.5C 94.5,121.833 94.5,117.167 94.5,112.5 Z"/></g>
<g><path style="opacity:1" fill="#8f8f8f" d="M 143.5,125.5 C 144.5,125.5 145.5,125.5 146.5,125.5C 146.826,121.116 146.492,116.783 145.5,112.5C 144.004,116.335 143.004,116.335 142.5,112.5C 144.042,111.699 145.708,111.366 147.5,111.5C 147.5,116.5 147.5,121.5 147.5,126.5C 145.901,126.768 144.568,126.434 143.5,125.5 Z"/></g>
<g><path style="opacity:1" fill="#858583" d="M 150.5,114.5 C 151.166,118.021 151.833,121.687 152.5,125.5C 152.888,121.411 153.888,117.744 155.5,114.5C 155.5,114.833 155.5,115.167 155.5,115.5C 154.518,118.962 154.185,122.629 154.5,126.5C 153.167,126.5 151.833,126.5 150.5,126.5C 150.5,122.5 150.5,118.5 150.5,114.5 Z"/></g>
<g><path style="opacity:1" fill="#343531" d="M 160.5,114.5 C 161.765,115.514 162.431,117.014 162.5,119C 162.167,120.5 161.833,122 161.5,123.5C 160.516,120.572 160.183,117.572 160.5,114.5 Z"/></g>
<g><path style="opacity:1" fill="#efd91d" d="M 30.5,115.5 C 29.2243,118.03 29.2243,120.697 30.5,123.5C 23.666,125.326 22.4993,123.992 27,119.5C 27.49,118.207 27.6567,116.873 27.5,115.5C 28.9663,114.653 29.7996,113.32 30,111.5C 30.49,112.793 30.6567,114.127 30.5,115.5 Z"/></g>
<g><path style="opacity:1" fill="#858582" d="M 58.5,112.5 C 58.1744,116.884 58.5078,121.217 59.5,125.5C 60.1757,124.398 60.8423,123.398 61.5,122.5C 61.5,123.833 61.5,125.167 61.5,126.5C 60.1667,126.5 58.8333,126.5 57.5,126.5C 57.1805,121.637 57.5139,116.97 58.5,112.5 Z"/></g>
<g><path style="opacity:1" fill="#e5e5e2" d="M 68.5,112.5 C 70.8333,112.5 73.1667,112.5 75.5,112.5C 76.4575,116.67 76.4575,121.003 75.5,125.5C 74.5,125.5 73.5,125.5 72.5,125.5C 72.5,125.167 72.5,124.833 72.5,124.5C 72.6309,123.624 72.2975,122.957 71.5,122.5C 70.8333,123.5 70.1667,124.5 69.5,125.5C 68.5078,121.217 68.1744,116.884 68.5,112.5 Z"/></g>
<g><path style="opacity:1" fill="#686967" d="M 70.5,114.5 C 71.5,114.5 72.5,114.5 73.5,114.5C 73.5,116.167 73.5,117.833 73.5,119.5C 72.5,119.5 71.5,119.5 70.5,119.5C 70.5,117.833 70.5,116.167 70.5,114.5 Z"/></g>
<g><path style="opacity:1" fill="#f6f7f4" d="M 114.5,112.5 C 115.8,114.223 116.467,116.39 116.5,119C 116.167,121.167 115.833,123.333 115.5,125.5C 114.508,121.217 114.174,116.884 114.5,112.5 Z"/></g>
<g><path style="opacity:1" fill="#f0f1ee" d="M 139.5,112.5 C 140.5,112.5 141.5,112.5 142.5,112.5C 143.004,116.335 144.004,116.335 145.5,112.5C 146.492,116.783 146.826,121.116 146.5,125.5C 145.5,125.5 144.5,125.5 143.5,125.5C 143.5,124.833 143.5,124.167 143.5,123.5C 143.631,122.624 143.298,121.957 142.5,121.5C 141.833,122.833 141.167,124.167 140.5,125.5C 139.508,121.217 139.174,116.884 139.5,112.5 Z"/></g>
<g><path style="opacity:1" fill="#525251" d="M 165.5,112.5 C 166.167,112.5 166.833,112.5 167.5,112.5C 167.5,115.167 167.5,117.833 167.5,120.5C 166.833,122.167 166.167,123.833 165.5,125.5C 165.5,121.167 165.5,116.833 165.5,112.5 Z"/></g>
<g><path style="opacity:1" fill="#cdbd36" d="M 27.5,115.5 C 27.6567,116.873 27.49,118.207 27,119.5C 22.4993,123.992 23.666,125.326 30.5,123.5C 29.2243,120.697 29.2243,118.03 30.5,115.5C 30.3379,117.527 30.5045,119.527 31,121.5C 31.8159,122.823 32.9826,123.489 34.5,123.5C 34.9175,124.222 35.5842,124.722 36.5,125C 33.6667,125.167 30.8333,125.333 28,125.5C 24.7485,125.481 21.9151,124.814 19.5,123.5C 23.2202,121.78 25.8868,119.113 27.5,115.5 Z"/></g>
<g><path style="opacity:1" fill="#636461" d="M 137.5,112.5 C 138.167,112.5 138.833,112.5 139.5,112.5C 139.174,116.884 139.508,121.217 140.5,125.5C 141.167,124.167 141.833,122.833 142.5,121.5C 143.298,121.957 143.631,122.624 143.5,123.5C 142.596,124.209 142.263,125.209 142.5,126.5C 140.708,126.634 139.042,126.301 137.5,125.5C 137.5,124.833 137.5,124.167 137.5,123.5C 138.833,120.5 138.833,117.5 137.5,114.5C 137.5,113.833 137.5,113.167 137.5,112.5 Z"/></g>
<g><path style="opacity:1" fill="#6a6324" d="M 19.5,123.5 C 21.9151,124.814 24.7485,125.481 28,125.5C 30.8333,125.333 33.6667,125.167 36.5,125C 35.5842,124.722 34.9175,124.222 34.5,123.5C 35.5,123.5 36.5,123.5 37.5,123.5C 37.5,124.167 37.5,124.833 37.5,125.5C 37.5,125.833 37.5,126.167 37.5,126.5C 31.1667,126.5 24.8333,126.5 18.5,126.5C 18.2627,125.209 18.596,124.209 19.5,123.5 Z"/></g>
<g><path style="opacity:1" fill="#8a8987" d="M 43.5,123.5 C 44.3382,123.842 44.6716,124.508 44.5,125.5C 42.3926,126.468 40.0593,126.802 37.5,126.5C 37.5,126.167 37.5,125.833 37.5,125.5C 40.0821,125.975 42.0821,125.308 43.5,123.5 Z"/></g>
<g><path style="opacity:1" fill="#8c8c8b" d="M 86.5,112.5 C 86.5,116.833 86.5,121.167 86.5,125.5C 88.7812,125.923 90.4479,125.256 91.5,123.5C 92.404,124.209 92.7373,125.209 92.5,126.5C 89.9407,126.802 87.6074,126.468 85.5,125.5C 85.1818,120.968 85.5151,116.634 86.5,112.5 Z"/></g>
<g><path style="opacity:1" fill="#e0e0e0" d="M 157.5,181.5 C 156.737,182.268 155.737,182.768 154.5,183C 115.331,183.831 76.3312,183.665 37.5,182.5C 77.5239,182.81 117.524,182.477 157.5,181.5 Z"/></g>
</svg>
